Coordinates
version=1
nRows=16
nColumns=30
inDegrees=yes

Units are S.I. units (second, meters, Newtons, ...)
Angles are in degrees.

endheader
time	floatyaw	floatroll	floatpitch	floatx	floaty	floatz	pro_sup_l	deviation_l	flexion_l	cmc_flexion_l	cmc_abduction_l	mp_flexion_l	ip_flexion_l	2mcp_flexion_l	2mcp_abduction_l	2pm_flexion_l	2md_flexion_l	3mcp_flexion_l	3mcp_abduction_l	3pm_flexion_l	3md_flexion_l	4mcp_flexion_l	4mcp_abduction_l	4pm_flexion_l	4md_flexion_l	5mcp_flexion_l	5mcp_abduction_l	5pm_flexion_l	5md_flexion_l
-0.995000	-160.147433	-5.066637	-73.570646	0.081876	-0.182048	-0.017711	102.694931	4.119908	-1.123308	16.128054	5.236754	-25.132724	-40.843676	29.552636	7.099089	42.798863	29.068151	25.316511	4.357167	43.235663	28.359649	13.921747	-4.301066	51.617349	35.500160	1.199311	-9.086058	61.580919	43.337752
-0.985000	-160.147433	-5.066637	-73.570646	0.081877	-0.182044	-0.017707	102.684723	4.116903	-1.115425	16.132022	5.242575	-25.158991	-40.870215	29.555309	7.099341	42.809925	29.073569	25.318893	4.360677	43.219945	28.343320	13.909637	-4.306380	51.640541	35.508350	1.198817	-9.078684	61.572640	43.332528
-0.975000	-160.147433	-5.066637	-73.570646	0.081881	-0.182039	-0.017702	102.677814	4.114841	-1.106339	16.130679	5.236104	-25.173479	-40.886211	29.559376	7.097852	42.812400	29.073160	25.322955	4.362721	43.205467	28.326078	13.895114	-4.309176	51.658196	35.510546	1.196042	-9.071800	61.567543	43.326339
-0.965000	-160.147433	-5.066637	-73.570646	0.081884	-0.182037	-0.017699	102.673608	4.113705	-1.099520	16.123982	5.225118	-25.174020	-40.888434	29.562343	7.096938	42.809907	29.069945	25.325443	4.363430	43.203748	28.316147	13.882009	-4.309081	51.670285	35.507540	1.192319	-9.067928	61.571471	43.322366
-0.955000	-160.147433	-5.066637	-73.570646	0.081884	-0.182039	-0.017695	102.670400	4.113089	-1.097307	16.113728	5.214649	-25.163986	-40.880298	29.563042	7.097974	42.805945	29.066744	25.324033	4.363413	43.219038	28.317379	13.873161	-4.306891	51.678144	35.501538	1.188030	-9.068731	61.587890	43.323372
-0.945000	-160.147433	-5.066637	-73.570646	0.081881	-0.182045	-0.017693	102.666403	4.112669	-1.099657	16.102432	5.205442	-25.150551	-40.870492	29.563097	7.100754	42.802373	29.064537	25.319190	4.363435	43.245375	28.326833	13.869507	-4.304193	51.683601	35.495184	1.182689	-9.074672	61.616898	43.330735
-0.935000	-160.147433	-5.066637	-73.570646	0.081875	-0.182052	-0.017689	102.660947	4.112604	-1.103951	16.091984	5.195298	-25.141075	-40.868491	29.566187	7.103829	42.799445	29.062559	25.314168	4.364084	43.269418	28.336469	13.869944	-4.302621	51.688301	35.490661	1.175785	-9.084627	61.655146	43.343825
-0.925000	-160.147433	-5.066637	-73.570646	0.081868	-0.182056	-0.017684	102.654796	4.113387	-1.106220	16.082681	5.182065	-25.139505	-40.879332	29.575764	7.105599	42.796706	29.059629	25.313040	4.365578	43.277892	28.338198	13.871804	-4.303095	51.693633	35.489383	1.167817	-9.095831	61.696483	43.360005
-0.915000	-160.147433	-5.066637	-73.570646	0.081862	-0.182053	-0.017678	102.649194	4.115136	-1.103274	16.073143	5.166690	-25.144666	-40.900660	29.592903	7.105509	42.793704	29.055436	25.318129	4.367816	43.265371	28.329169	13.871867	-4.305500	51.701157	35.492330	1.160831	-9.104693	61.733365	43.375473
-0.905000	-160.147433	-5.066637	-73.570646	0.081857	-0.182042	-0.017671	102.644514	4.117069	-1.094536	16.061301	5.154492	-25.151227	-40.923811	29.615575	7.104660	42.789952	29.050781	25.328578	4.370565	43.237637	28.313840	13.867743	-4.308955	51.712803	35.500371	1.158010	-9.108437	61.759002	43.386679
-0.895000	-160.147433	-5.066637	-73.570646	0.081853	-0.182027	-0.017664	102.639869	4.117839	-1.082395	16.046114	5.153283	-25.152679	-40.938404	29.639460	7.105385	42.784516	29.046770	25.340915	4.373589	43.208614	28.301446	13.859092	-4.312415	51.730129	35.513925	1.162377	-9.106646	61.769696	43.391674
-0.885000	-160.147433	-5.066637	-73.570646	0.081850	-0.182013	-0.017659	102.634019	4.116545	-1.070883	16.028981	5.168957	-25.144809	-40.937889	29.659834	7.109935	42.776087	29.043768	25.351122	4.376529	43.192952	28.300526	13.848022	-4.315162	51.752797	35.532006	1.175236	-9.101545	61.766279	43.390640
-0.875000	-160.147433	-5.066637	-73.570646	0.081845	-0.182004	-0.017657	102.626587	4.113468	-1.063568	16.013709	5.201220	-25.128017	-40.922913	29.673741	7.119032	42.763993	29.041059	25.356825	4.378693	43.198849	28.314054	13.838346	-4.316906	51.777459	35.551536	1.195269	-9.096639	61.753623	43.385364
-0.865000	-160.147433	-5.066637	-73.570646	0.081840	-0.182000	-0.017656	102.618466	4.109906	-1.061977	16.004660	5.242258	-25.107388	-40.900591	29.681286	7.131208	42.749669	29.037556	25.358205	4.379082	43.225128	28.338100	13.833960	-4.317617	51.798384	35.567834	1.218898	-9.094569	61.738268	43.378046
-0.855000	-160.147433	-5.066637	-73.570646	0.081835	-0.182001	-0.017656	102.611205	4.107315	-1.065248	16.004155	5.279375	-25.090518	-40.880262	29.684970	7.143530	42.737274	29.033007	25.357073	4.376837	43.263532	28.364542	13.836974	-4.317334	51.809981	35.576377	1.241784	-9.095721	61.725517	43.370232
-0.845000	-160.147433	-5.066637	-73.570646	0.081831	-0.182004	-0.017656	102.605998	4.106530	-1.070787	16.010940	5.300413	-25.084244	-40.868490	29.687250	7.153362	42.732381	29.028728	25.354924	4.371852	43.304107	28.385842	13.846389	-4.316127	51.809775	35.574887	1.260507	-9.098518	61.717700	43.362536
